<svg width="70" height="87.5" xmlns="http://www.w3.org/2000/svg">

 <g>
  <title>background</title>
  <rect fill="none" id="canvas_background" height="402" width="582" y="-1" x="-1"/>
 </g>
 <g>
  <title>Layer 1</title>
  <g id="svg_1">
   <path id="svg_2" d="m30.504151,57.946382l0,-14.506c-3.10527,-0.45739 -5.08796,-1.73501 -5.08796,-3.35857c0,-1.34976 1.34725,-2.47647 3.6977,-3.09058c1.48272,-0.3882 2.92655,0.75358 2.92655,2.29693l0,2.88061c0.37764,0.04888 1.05157,0.09876 2.19141,0.0612l0,-22.54601c-7.67345,0.71563 -13.7726,7.11134 -14.03665,14.89531c-0.13702,4.02776 1.26224,7.89299 3.94075,10.88255c3.2136,3.58618 4.98294,8.01652 4.98294,12.47386l1.38526,0.0107z"/>
   <path id="svg_3" d="m29.501961,38.477512c-1.67331,0.43758 -2.54948,1.13821 -2.54948,1.6043c0,0.5571 1.22923,1.43177 3.55167,1.81634l0,-2.60999c0,-0.51722 -0.48315,-0.94643 -1.00219,-0.81065z"/>
   <path id="svg_4" d="m32.040441,57.958252l2.19141,0.01694l0,-14.20856c-0.9758,0.03088 -1.68963,0.00375 -2.19141,-0.05013l0,14.24175z"/>
   <rect id="svg_5" height="2.767523" width="13.935634" y="63.349709" x="26.952472"/>
   <path id="svg_6" d="m33.919801,75.500002c2.35744,0 4.31581,-1.74682 4.64587,-4.01426l-9.30075,0c0.31106,2.24143 2.28043,4.01426 4.65488,4.01426z"/>
   <path id="svg_7" d="m39.607871,59.517482l-4.60787,0l-5.8361,0l-0.93118,0c-0.70613,0 -1.28024,0.57411 -1.28024,1.28024l0,1.0157l13.93563,0l0,-1.0157c0,-0.70613 -0.57411,-1.28024 -1.28024,-1.28024z"/>
   <path id="svg_8" d="m45.504111,33.228952c-3.86273,-0.35875 -4.21211,2.9263 -5.43915,1.90092c-0.32606,-0.27105 -0.37107,-0.75564 -0.09902,-1.0817c1.28655,-1.54604 3.19329,-2.4022 5.1726,-2.36888c0.19498,-0.54867 0.29643,-1.12366 0.29643,-1.71689c0,-2.6325 -1.96337,-4.82191 -4.56586,-5.09247c-0.36207,-0.0375 -0.64712,-0.32356 -0.68513,-0.68462c-0.24705,-2.37645 -2.0934,-4.2193 -4.41583,-4.52236l0,38.27474c2.32243,-0.30306 4.16878,-2.14591 4.41583,-4.52236c0.03801,-0.36157 0.32306,-0.64712 0.68513,-0.68463c2.60249,-0.27055 4.56586,-2.45996 4.56586,-5.09246c0,-0.76115 -0.16203,-1.49378 -0.48309,-2.17791c-0.09502,-0.20404 -0.09602,-0.44009 -0.002,-0.64563c0.09402,-0.20503 0.27305,-0.35856 0.49009,-0.41957c2.49248,-0.69964 4.2338,-3.00307 4.2338,-5.60106c0,-2.56786 -1.71276,-4.84354 -4.16966,-5.56512z"/>
   <path id="svg_9" d="m26.952481,68.669212c0,0.70614 0.57411,1.28024 1.28024,1.28024l0.23404,0l10.90707,0l0.23404,0c0.70613,0 1.28024,-0.5741 1.28024,-1.28024l0,-1.01569l-13.93563,0l0,1.01569z"/>
   <path id="svg_10" d="m35.000001,16.906432c0.42408,0 0.76815,-0.34406 0.76815,-0.76814l0,-3.37014c0,-0.42408 -0.34407,-0.76815 -0.76815,-0.76815s-0.76815,0.34407 -0.76815,0.76815l0,3.37014c0,0.42408 0.34407,0.76814 0.76815,0.76814z"/>
   <path id="svg_11" d="m24.224961,19.231372c0.21175,0.36757 0.6828,0.49302 1.0492,0.28105c0.36707,-0.21204 0.4931,-0.68163 0.28106,-1.0492l-1.68532,-2.91855c-0.21204,-0.36757 -0.68013,-0.49459 -1.0492,-0.28105c-0.36707,0.21204 -0.4931,0.68163 -0.28105,1.0492l1.68531,2.91855z"/>
   <path id="svg_12" d="m17.872761,25.583072l-2.91855,-1.68532c-0.36807,-0.21304 -0.83816,-0.08551 -1.0492,0.28105c-0.21204,0.36757 -0.08601,0.83716 0.28106,1.0492l2.91855,1.68532c0.3668,0.2122 0.83763,0.08622 1.0492,-0.28105c0.21204,-0.36757 0.08601,-0.83716 -0.28106,-1.0492z"/>
   <path id="svg_13" d="m14.780181,35.589462l-3.36964,0c-0.42408,0 -0.76814,0.34407 -0.76814,0.76815c0,0.42408 0.34406,0.76814 0.76814,0.76814l3.36964,0c0.42408,0 0.76814,-0.34406 0.76814,-0.76814c0,-0.42408 -0.34406,-0.76815 -0.76814,-0.76815z"/>
   <path id="svg_14" d="m58.589461,35.589462l-3.37064,0c-0.42408,0 -0.76814,0.34407 -0.76814,0.76815c0,0.42408 0.34406,0.76814 0.76814,0.76814l3.37064,0c0.42408,0 0.76814,-0.34406 0.76814,-0.76814c0,-0.42408 -0.34406,-0.76815 -0.76814,-0.76815z"/>
   <path id="svg_15" d="m56.093991,24.178802c-0.21104,-0.36656 -0.68013,-0.49409 -1.0492,-0.28105l-2.91855,1.68532c-0.36707,0.21204 -0.4931,0.68163 -0.28106,1.0492c0.21175,0.36757 0.6828,0.49302 1.0492,0.28105l2.91855,-1.68532c0.36707,-0.21204 0.4931,-0.68163 0.28106,-1.0492z"/>
   <path id="svg_16" d="m44.724841,19.512422c0.3668,0.21221 0.83763,0.08622 1.0492,-0.28105l1.68531,-2.91855c0.21204,-0.36757 0.08602,-0.83716 -0.28105,-1.0492c-0.36907,-0.21354 -0.83816,-0.08652 -1.0492,0.28105l-1.68532,2.91855c-0.21204,0.36757 -0.08601,0.83716 0.28106,1.0492z"/>
  </g>
 </g>
</svg>